<svg xmlns="http://www.w3.org/2000/svg" viewBox="0 0 64 64" role="img" aria-label="VynTask">
  <defs>
    <linearGradient id="topGrad" x1="12" y1="17" x2="52" y2="28" gradientUnits="userSpaceOnUse">
      <stop offset="0%" stop-color="#ffbf2f" />
      <stop offset="100%" stop-color="#ff7a1c" />
    </linearGradient>
    <linearGradient id="bodyGrad" x1="12" y1="28" x2="52" y2="52" gradientUnits="userSpaceOnUse">
      <stop offset="0%" stop-color="#ffffff" />
      <stop offset="100%" stop-color="#e8ecf1" />
    </linearGradient>
    <linearGradient id="checkGrad" x1="36" y1="34" x2="48" y2="46" gradientUnits="userSpaceOnUse">
      <stop offset="0%" stop-color="#ffbe2e" />
      <stop offset="100%" stop-color="#ea580c" />
    </linearGradient>
    <linearGradient id="ringGrad" x1="22" y1="8" x2="42" y2="16" gradientUnits="userSpaceOnUse">
      <stop offset="0%" stop-color="#ffd34b" />
      <stop offset="100%" stop-color="#ff8c1a" />
    </linearGradient>
    <linearGradient id="badgeFill" x1="36" y1="33" x2="52" y2="49" gradientUnits="userSpaceOnUse">
      <stop offset="0%" stop-color="#fffefb" />
      <stop offset="100%" stop-color="#f1f5f9" />
    </linearGradient>
  </defs>

  <path d="M17 17h30q5 0 5 5v28q0 5-5 5H17q-5 0-5-5V22q0-5 5-5z" fill="url(#bodyGrad)" />
  <path d="M17 17h30q5 0 5 5v6H12V22q0-5 5-5z" fill="url(#topGrad)" />
  <path d="M12 28h40" stroke="rgba(15,23,42,0.18)" stroke-width="1.25" />
  <g opacity="0.92" fill="rgba(255,255,255,0.5)">
    <circle cx="17.5" cy="22.5" r="1.35" />
    <circle cx="22.5" cy="22.5" r="1.35" />
    <circle cx="27.5" cy="22.5" r="1.35" />
    <circle cx="32.5" cy="22.5" r="1.35" />
    <circle cx="37.5" cy="22.5" r="1.35" />
    <circle cx="42.5" cy="22.5" r="1.35" />
    <circle cx="47.5" cy="22.5" r="1.35" />
  </g>
  <path d="M24 8v10M40 8v10" stroke="url(#ringGrad)" stroke-width="3.4" stroke-linecap="round" />
  <g opacity="0.65" fill="rgba(15,23,42,0.08)">
    <rect x="33" y="31" width="6.5" height="5.5" rx="1" />
    <rect x="40.5" y="31" width="6.5" height="5.5" rx="1" />
    <rect x="33" y="38" width="6.5" height="5.5" rx="1" />
    <rect x="40.5" y="38" width="6.5" height="5.5" rx="1" />
  </g>
  <g>
    <rect x="14.5" y="32.5" width="3.2" height="3.2" rx="0.9" fill="url(#checkGrad)" />
    <path d="M20 34h11" stroke="rgba(15,23,42,0.32)" stroke-width="2" stroke-linecap="round" />
    <rect x="14.5" y="38.5" width="3.2" height="3.2" rx="0.9" fill="rgba(15,23,42,0.16)" />
    <path d="M20 40h11" stroke="rgba(15,23,42,0.26)" stroke-width="2" stroke-linecap="round" />
    <rect x="14.5" y="44.5" width="3.2" height="3.2" rx="0.9" fill="rgba(15,23,42,0.16)" />
    <path d="M20 46h9" stroke="rgba(15,23,42,0.26)" stroke-width="2" stroke-linecap="round" />
  </g>
  <circle cx="44" cy="41" r="8.2" fill="url(#badgeFill)" stroke="url(#checkGrad)" stroke-width="2.2" />
  <path
    d="M39.2 41.2l2.4 2.4 5.6-6.2"
    fill="none"
    stroke="url(#checkGrad)"
    stroke-width="2.85"
    stroke-linecap="round"
    stroke-linejoin="round"
  />
</svg>
